<svg fill="none" height="161" viewBox="0 0 183 161" width="183" xmlns="http://www.w3.org/2000/svg">
    <path
        d="M11.9051 94.4944C4.024 56.6463 28.317 19.5754 66.1651 11.6943C104.013 3.81322 141.084 28.1063 148.965 65.9544C149.528 68.6578 152.176 70.393 154.879 69.8301C157.583 69.2671 159.318 66.6192 158.755 63.9158C149.748 20.6608 107.382 -7.10265 64.1266 1.90431C20.8716 10.9113 -6.89188 53.278 2.11509 96.5329C11.1221 139.788 53.4888 167.551 96.7437 158.544C123.526 152.968 144.365 134.598 154.215 111.17C155.285 108.625 154.089 105.694 151.544 104.623C148.998 103.553 146.067 104.749 144.996 107.295C136.367 127.82 118.131 143.876 94.7052 148.754C75.3071 152.794 56.1132 148.381 40.9486 138.024C40.9778 137.996 41.0068 137.968 41.0355 137.939L67.9526 111.022L99.0384 123.402L128.232 87.4182L154.914 100.764L165.658 91.2184L175.875 99.6508L182.043 62.9261L147.155 75.9467L157.853 84.7764L153.333 88.7919L125.525 74.883L95.906 111.391L65.5364 99.2963L33.9645 130.868C33.6553 131.177 33.3951 131.517 33.1838 131.877C22.699 122.302 15.0209 109.458 11.9051 94.4944Z"
        fill="#55C5B8" />
    <path clip-rule="evenodd" d="M93.2 69.904C95.76 67.3867 97.04 64.3787 97.04 60.88C97.04 58.064 96.336 55.8027 94.928 54.096C93.52 52.3467 91.7707 51.0453 89.68 50.192C87.632 49.296 85.1147 48.5067 82.128 47.824V36.944C85.456 37.328 88.72 38.4373 91.92 40.272L95.12 32.4C91.7067 30.224 87.376 28.9227 82.128 28.496V21.52H75.728V28.624C70.864 29.1787 67.1307 30.736 64.528 33.296C61.968 35.8133 60.688 38.8427 60.688 42.384C60.688 45.2427 61.392 47.5467 62.8 49.296C64.208 51.0027 65.9573 52.304 68.048 53.2C70.1387 54.096 72.6987 54.9067 75.728 55.632V66.32C73.424 66.1067 71.184 65.5947 69.008 64.784C66.832 63.9733 64.9333 62.9707 63.312 61.776L59.792 69.584C61.5413 70.9494 63.8453 72.1013 66.704 73.04C69.5627 73.9787 72.5707 74.5333 75.728 74.704V81.68H82.128V74.512C86.9493 73.9147 90.64 72.3787 93.2 69.904ZM72.208 44.496C71.3973 43.8133 70.992 42.9387 70.992 41.872C70.992 40.7627 71.376 39.8027 72.144 38.992C72.912 38.1387 74.1067 37.52 75.728 37.136V46.224C74.192 45.7547 73.0187 45.1787 72.208 44.496ZM85.584 64.4C84.816 65.168 83.664 65.7227 82.128 66.064V57.232C83.6213 57.744 84.752 58.3414 85.52 59.024C86.3307 59.7067 86.736 60.5813 86.736 61.648C86.736 62.7147 86.352 63.632 85.584 64.4Z"
        fill="#55C5B8"
        fill-rule="evenodd" />
</svg>
